<svg width="36" height="36" viewBox="0 0 36 36" fill="none" xmlns="http://www.w3.org/2000/svg">
<g id="icons8-github 1">
<path id="Vector" d="M18.0002 0.720215C8.45733 0.720215 0.720215 8.45734 0.720215 18.0002C0.720215 26.0973 6.2959 32.8725 13.8127 34.7474C13.7321 34.5141 13.6802 34.2434 13.6802 33.9079V30.9545C12.9789 30.9545 11.8039 30.9545 11.5087 30.9545C10.3265 30.9545 9.27525 30.4461 8.76549 29.5015C8.19957 28.4517 8.10165 26.8461 6.69909 25.8641C6.28293 25.5372 6.59973 25.1642 7.07925 25.2146C7.96485 25.4652 8.69925 26.0729 9.39045 26.9743C10.0788 27.8772 10.4028 28.0817 11.6887 28.0817C12.3122 28.0817 13.2453 28.0457 14.1237 27.9074C14.5961 26.7079 15.4125 25.6034 16.4105 25.0821C10.6562 24.4903 7.91013 21.6276 7.91013 17.741C7.91013 16.0677 8.62294 14.4492 9.83397 13.0855C9.43653 11.7319 8.93686 8.97142 9.98662 7.92022C12.5757 7.92022 14.141 9.59926 14.5169 10.0529C15.8071 9.61077 17.2241 9.36022 18.713 9.36022C20.2049 9.36022 21.6276 9.61077 22.9207 10.0557C23.2922 9.60501 24.8589 7.92022 27.4538 7.92022C28.5079 8.97286 28.0025 11.7449 27.6007 13.0956C28.8045 14.4564 29.513 16.0706 29.513 17.741C29.513 21.6247 26.7713 24.486 21.0257 25.0807C22.6068 25.9058 23.7602 28.2242 23.7602 29.9709V33.9079C23.7602 34.0577 23.7271 34.1657 23.7098 34.2938C30.4433 31.9337 35.2802 25.5401 35.2802 18.0002C35.2802 8.45734 27.5431 0.720215 18.0002 0.720215Z" fill="#66FCF1"/>
</g>
</svg>
