<svg width="36" height="36" viewBox="0 0 36 36" fill="none" xmlns="http://www.w3.org/2000/svg">
<g id="icons8-instagram (1) 1">
<path id="Vector" d="M11.5199 2.15991C6.3593 2.15991 2.15991 6.3593 2.15991 11.5199V24.4799C2.15991 29.6405 6.3593 33.8399 11.5199 33.8399H24.4799C29.6405 33.8399 33.8399 29.6405 33.8399 24.4799V11.5199C33.8399 6.3593 29.6405 2.15991 24.4799 2.15991H11.5199ZM11.5199 3.59991H24.4799C28.8622 3.59991 32.3999 7.13764 32.3999 11.5199V24.4799C32.3999 28.8622 28.8622 32.3999 24.4799 32.3999H11.5199C7.13764 32.3999 3.59991 28.8622 3.59991 24.4799V11.5199C3.59991 7.13764 7.13764 3.59991 11.5199 3.59991ZM26.6399 7.91991C26.258 7.91991 25.8917 8.07163 25.6217 8.34168C25.3516 8.61173 25.1999 8.978 25.1999 9.35991C25.1999 9.74182 25.3516 10.1081 25.6217 10.3781C25.8917 10.6482 26.258 10.7999 26.6399 10.7999C27.0218 10.7999 27.3881 10.6482 27.6581 10.3781C27.9282 10.1081 28.0799 9.74182 28.0799 9.35991C28.0799 8.978 27.9282 8.61173 27.6581 8.34168C27.3881 8.07163 27.0218 7.91991 26.6399 7.91991ZM17.9999 10.0799C13.6343 10.0799 10.0799 13.6343 10.0799 17.9999C10.0799 22.3655 13.6343 25.9199 17.9999 25.9199C22.3655 25.9199 25.9199 22.3655 25.9199 17.9999C25.9199 13.6343 22.3655 10.0799 17.9999 10.0799ZM17.9999 11.5199C21.5872 11.5199 24.4799 14.4126 24.4799 17.9999C24.4799 21.5872 21.5872 24.4799 17.9999 24.4799C14.4126 24.4799 11.5199 21.5872 11.5199 17.9999C11.5199 14.4126 14.4126 11.5199 17.9999 11.5199Z" fill="#66FCF1"/>
</g>
</svg>
