<svg width="36" height="36" viewBox="0 0 36 36" fill="none" xmlns="http://www.w3.org/2000/svg">
<g id="icons8-linkedin 1">
<path id="Vector" d="M29.5199 2.87988H6.47988C4.49268 2.87988 2.87988 4.49268 2.87988 6.47988V29.5199C2.87988 31.5071 4.49268 33.1199 6.47988 33.1199H29.5199C31.5071 33.1199 33.1199 31.5071 33.1199 29.5199V6.47988C33.1199 4.49268 31.5071 2.87988 29.5199 2.87988ZM12.2399 14.3999V28.0799H7.91988V14.3999H12.2399ZM7.91988 10.4183C7.91988 9.41028 8.78388 8.63988 10.0799 8.63988C11.3759 8.63988 12.1895 9.41028 12.2399 10.4183C12.2399 11.4263 11.4335 12.2399 10.0799 12.2399C8.78388 12.2399 7.91988 11.4263 7.91988 10.4183ZM28.0799 28.0799H23.7599C23.7599 28.0799 23.7599 21.4127 23.7599 20.8799C23.7599 19.4399 23.0399 17.9999 21.2399 17.9711H21.1823C19.4399 17.9711 18.7199 19.4543 18.7199 20.8799C18.7199 21.5351 18.7199 28.0799 18.7199 28.0799H14.3999V14.3999H18.7199V16.2431C18.7199 16.2431 20.1095 14.3999 22.9031 14.3999C25.7615 14.3999 28.0799 16.3655 28.0799 20.3471V28.0799Z" fill="#66FCF1"/>
</g>
</svg>
